<svg id="Calque_1" data-name="Calque 1" xmlns="http://www.w3.org/2000/svg" xmlns:xlink="http://www.w3.org/1999/xlink" viewBox="0 0 68.03 68.03"><defs><style>.cls-1,.cls-2,.cls-3{fill:#3d3d3d;}.cls-1{clip-rule:evenodd;}.cls-3{fill-rule:evenodd;}.cls-4{clip-path:url(#clip-path);}.cls-5{clip-path:url(#clip-path-2);}.cls-6{isolation:isolate;}.cls-7{clip-path:url(#clip-path-3);}.cls-8{clip-path:url(#clip-path-4);}.cls-9{clip-path:url(#clip-path-5);}</style><clipPath id="clip-path"><path class="cls-1" d="M36.12-54.38A2.15,2.15,0,0,1,34-56.53a2.15,2.15,0,0,1,2.15-2.15,2.15,2.15,0,0,1,2.15,2.15A2.15,2.15,0,0,1,36.12-54.38ZM34-47.21a7.17,7.17,0,0,0,7.17-7.17A7.17,7.17,0,0,0,34-61.55a7.17,7.17,0,0,0-7.17,7.17A7.17,7.17,0,0,0,34-47.21Zm0,4.3c-11.88,0-21.52-8.56-21.52-11.48S22.08-65.86,34-65.86s21.52,8.67,21.52,11.48S45.85-42.9,34-42.9Z"/></clipPath><clipPath id="clip-path-2"><rect class="cls-2" x="12.45" y="-77.33" width="43.04" height="43.04"/></clipPath><clipPath id="clip-path-3"><rect class="cls-2" x="-70.94" y="-160.72" width="212.49" height="212.49"/></clipPath><clipPath id="clip-path-4"><rect class="cls-2" x="-70.76" y="-160.54" width="212.22" height="212.22"/></clipPath><clipPath id="clip-path-5"><rect class="cls-2" x="12.45" y="-66.04" width="43.04" height="0.54"/></clipPath></defs><title>Event listener</title><path class="cls-3" d="M36.12-54.38A2.15,2.15,0,0,1,34-56.53a2.15,2.15,0,0,1,2.15-2.15,2.15,2.15,0,0,1,2.15,2.15A2.15,2.15,0,0,1,36.12-54.38ZM34-47.21a7.17,7.17,0,0,0,7.17-7.17A7.17,7.17,0,0,0,34-61.55a7.17,7.17,0,0,0-7.17,7.17A7.17,7.17,0,0,0,34-47.21Zm0,4.3c-11.88,0-21.52-8.56-21.52-11.48S22.08-65.86,34-65.86s21.52,8.67,21.52,11.48S45.85-42.9,34-42.9Z"/><g class="cls-4"><rect class="cls-2" x="12.45" y="-77.33" width="43.04" height="43.04"/><g class="cls-5"><g class="cls-6"><rect class="cls-2" x="-70.94" y="-160.72" width="212.49" height="212.49"/><g class="cls-7"><rect class="cls-2" x="-70.76" y="-160.54" width="212.22" height="212.22"/><g class="cls-8"><rect class="cls-2" x="12.45" y="-66.04" width="43.04" height="0.54"/><g class="cls-9"><rect class="cls-2" x="-72.1" y="-161.88" width="214.91" height="214.91"/></g></g></g></g></g></g><rect class="cls-2" x="14.52" y="17.99" width="6.02" height="6.02"/><rect class="cls-2" x="24.42" y="17.99" width="29.09" height="6.02"/><rect class="cls-2" x="14.52" y="31.01" width="6.02" height="6.02"/><rect class="cls-2" x="24.42" y="31.01" width="29.09" height="6.02"/><rect class="cls-2" x="14.52" y="44.02" width="6.02" height="6.02"/><rect class="cls-2" x="24.42" y="44.02" width="29.09" height="6.02"/></svg>