<svg id="Calque_1" data-name="Calque 1" xmlns="http://www.w3.org/2000/svg" xmlns:xlink="http://www.w3.org/1999/xlink" viewBox="0 0 68.03 68.03"><defs><style>.cls-1,.cls-2,.cls-3{fill:#3d3d3d;}.cls-1{clip-rule:evenodd;}.cls-3{fill-rule:evenodd;}.cls-4{clip-path:url(#clip-path);}.cls-5{isolation:isolate;}.cls-6{clip-path:url(#clip-path-2);}.cls-7{clip-path:url(#clip-path-3);}</style><clipPath id="clip-path"><path class="cls-1" d="M53,36.09c0-.7.14-1.27.14-2s-.14-1.41-.14-2a20.32,20.32,0,0,0-3.38-.7,16.47,16.47,0,0,0-.7-2.82c1-.84,1.83-1.69,2.53-2.39-.56-1.13-1.27-2.25-2-3.38A17.84,17.84,0,0,0,46.22,24a10,10,0,0,0-2.11-2.11c.42-1.27.84-2.25,1.13-3.24a17.31,17.31,0,0,0-3.52-2c-.7.7-1.41,1.55-2.25,2.53a9.35,9.35,0,0,0-2.82-.84c-.28-1.27-.42-2.39-.7-3.24A9.3,9.3,0,0,0,34,15a8.66,8.66,0,0,0-2,.14,16,16,0,0,0-.7,3.24,9.35,9.35,0,0,0-2.82.84c-.84-1-1.69-1.83-2.39-2.53a21,21,0,0,0-3.38,2,22.49,22.49,0,0,0,1.13,3.24A7.54,7.54,0,0,0,21.71,24a22.49,22.49,0,0,0-3.24-1.13,21,21,0,0,0-2,3.38c.7.7,1.55,1.55,2.53,2.39a9.35,9.35,0,0,0-.84,2.82,16,16,0,0,0-3.24.7,8.66,8.66,0,0,0-.14,2,9.3,9.3,0,0,0,.14,2c.84.28,2,.42,3.24.7A9.35,9.35,0,0,0,19,39.61c-1,.84-1.83,1.55-2.53,2.25a17.31,17.31,0,0,0,2,3.52c1-.28,2-.7,3.24-1.13a10,10,0,0,0,2.11,2.11,17.83,17.83,0,0,0-1.13,3.24c1.13.7,2.25,1.41,3.38,2,.7-.7,1.55-1.55,2.39-2.53a16.47,16.47,0,0,0,2.82.7,20.32,20.32,0,0,0,.7,3.38c.56,0,1.27.14,2,.14s1.27-.14,2-.14c.28-1,.42-2.11.7-3.38a16.47,16.47,0,0,0,2.82-.7c.84,1,1.55,1.83,2.25,2.53a28.34,28.34,0,0,0,3.52-2c-.28-1-.7-2.11-1.13-3.24a15,15,0,0,0,2.11-2.11c1.13.42,2.25.84,3.24,1.13a28.34,28.34,0,0,0,2-3.52c-.7-.7-1.55-1.41-2.53-2.25a16.47,16.47,0,0,0,.7-2.82c1.27-.28,2.39-.42,3.38-.7M34,44.26A10.14,10.14,0,1,1,44.1,34.12,10.1,10.1,0,0,1,34,44.26"/></clipPath><clipPath id="clip-path-2"><rect class="cls-2" x="6.84" y="6.99" width="54.26" height="54.26"/></clipPath><clipPath id="clip-path-3"><rect class="cls-2" x="14.82" y="14.97" width="38.3" height="38.3"/></clipPath></defs><title>Options</title><path class="cls-3" d="M53,36.09c0-.7.14-1.27.14-2s-.14-1.41-.14-2a20.32,20.32,0,0,0-3.38-.7,16.47,16.47,0,0,0-.7-2.82c1-.84,1.83-1.69,2.53-2.39-.56-1.13-1.27-2.25-2-3.38A17.84,17.84,0,0,0,46.22,24a10,10,0,0,0-2.11-2.11c.42-1.27.84-2.25,1.13-3.24a17.31,17.31,0,0,0-3.52-2c-.7.7-1.41,1.55-2.25,2.53a9.35,9.35,0,0,0-2.82-.84c-.28-1.27-.42-2.39-.7-3.24A9.3,9.3,0,0,0,34,15a8.66,8.66,0,0,0-2,.14,16,16,0,0,0-.7,3.24,9.35,9.35,0,0,0-2.82.84c-.84-1-1.69-1.83-2.39-2.53a21,21,0,0,0-3.38,2,22.49,22.49,0,0,0,1.13,3.24A7.54,7.54,0,0,0,21.71,24a22.49,22.49,0,0,0-3.24-1.13,21,21,0,0,0-2,3.38c.7.7,1.55,1.55,2.53,2.39a9.35,9.35,0,0,0-.84,2.82,16,16,0,0,0-3.24.7,8.66,8.66,0,0,0-.14,2,9.3,9.3,0,0,0,.14,2c.84.28,2,.42,3.24.7A9.35,9.35,0,0,0,19,39.61c-1,.84-1.83,1.55-2.53,2.25a17.31,17.31,0,0,0,2,3.52c1-.28,2-.7,3.24-1.13a10,10,0,0,0,2.11,2.11,17.83,17.83,0,0,0-1.13,3.24c1.13.7,2.25,1.41,3.38,2,.7-.7,1.55-1.55,2.39-2.53a16.47,16.47,0,0,0,2.82.7,20.32,20.32,0,0,0,.7,3.38c.56,0,1.27.14,2,.14s1.27-.14,2-.14c.28-1,.42-2.11.7-3.38a16.47,16.47,0,0,0,2.82-.7c.84,1,1.55,1.83,2.25,2.53a28.34,28.34,0,0,0,3.52-2c-.28-1-.7-2.11-1.13-3.24a15,15,0,0,0,2.11-2.11c1.13.42,2.25.84,3.24,1.13a28.34,28.34,0,0,0,2-3.52c-.7-.7-1.55-1.41-2.53-2.25a16.47,16.47,0,0,0,.7-2.82c1.27-.28,2.39-.42,3.38-.7M34,44.26A10.14,10.14,0,1,1,44.1,34.12,10.1,10.1,0,0,1,34,44.26"/><g class="cls-4"><g class="cls-5"><rect class="cls-2" x="6.84" y="6.99" width="54.26" height="54.26"/><g class="cls-6"><rect class="cls-2" x="14.82" y="14.97" width="38.3" height="38.3"/><g class="cls-7"><rect class="cls-2" x="6.84" y="6.99" width="54.26" height="54.26"/></g></g></g></g></svg>