<svg id="Calque_1" data-name="Calque 1" xmlns="http://www.w3.org/2000/svg" viewBox="0 0 68.03 68.03"><defs><style>.cls-1{fill:#3d3d3d;}</style></defs><title>Event targeter</title><rect class="cls-1" x="52.18" y="15.72" width="2.35" height="5.91" rx="1.14" ry="1.14" transform="translate(2.42 43.2) rotate(-45)"/><path class="cls-1" d="M49.84,20.32a1.57,1.57,0,0,0-2.21-.1L31.18,36.67h0l-1.27,3.46a1.71,1.71,0,0,0,2,2l3.46-1.27h0L51.81,24.4a1.57,1.57,0,0,0-.1-2.21Z"/><path class="cls-1" d="M46.81,52H16.13V17.88H37.45a2.47,2.47,0,1,1,0,4.94H21.07V47.07H46.81a2.47,2.47,0,0,1,0,4.94Z"/></svg>